<svg width="165" height="136" viewBox="0 0 165 136" fill="none" xmlns="http://www.w3.org/2000/svg">
<path d="M158.87 6.0699C158.87 6.0699 144.848 14.3534 137.051 16.7013C132.866 11.8894 127.304 8.47891 121.118 6.93097C114.931 5.3831 108.419 5.77243 102.461 8.04643C96.5036 10.3204 91.3874 14.3693 87.8061 19.6455C84.224 24.9217 82.3493 31.1706 82.4348 37.5471V44.4957C70.2233 44.8123 58.1234 42.1041 47.2123 36.6121C36.3011 31.1201 26.9176 23.015 19.8972 13.0185C19.8972 13.0185 -7.89723 75.5563 54.6403 103.351C40.3298 113.064 23.2823 117.935 6 117.248C68.5375 151.991 144.972 117.248 144.972 37.3387C144.966 35.4031 144.78 33.4724 144.416 31.5713C151.508 24.5775 158.87 6.0699 158.87 6.0699Z" stroke="white" stroke-width="10.4229" stroke-linecap="round" stroke-linejoin="round"/>
</svg>
